<svg id="fd6ed0ef-5207-4790-90f8-849a58f2499c" data-name="Capa 1" xmlns="http://www.w3.org/2000/svg" width="1752.4" height="1416.2" viewBox="0 0 1752.4 1416.2">
  <title>Cineplanet 2013</title>
  <g>
    <path d="M2621.4,601.9a156.8,156.8,0,0,1,5.8,22.4c1.3,2.3-.1,4.1-1.5,5.4-8,7.7-8.1,17.6-5.4,26.8,3.7,12.6,6,26,15.8,35.9,2.5,2.6.7,6.2,1.2,9.2a292.4,292.4,0,0,1,.1,40.8c-.6,9.9-.9,19.9-2.6,29.8-12-.6-20.1,6.7-28.5,13.8-17.1,14.4-35,27.9-52.9,41.3-14.9,11.2-18.1,21-12.6,38.7,2.6,8.3,5.2,16.6,9.2,24.3,5.9,11.3,14,14,25.6,8.5,9.2-4.4,16.4-11.5,24.4-17.5,2.8-2.1,5-5.5,9.3-4.8-5,15.9-12.3,30.9-19.9,45.8a439.6,439.6,0,0,1-38.3,61.6,27.3,27.3,0,0,1-2.3,2.5c-4.7,2.1-8.2,5.6-11.4,9.6-33,41.2-73,74.1-119.2,99.5-50.4,27.7-104.4,43.5-161.5,49.2-14.8,1.5-29.5,2.6-44.4,2.7-39.7.3-77.6-8.3-114.4-22.2-39.6-15-75.9-36-109.5-61.7-5.7-6.3-9.6-13.8-14.9-20.5-9.6-12.2-20.3-22.9-35.3-28.2-6.2-8.3-12.9-16.2-18.7-24.8-1.6-2.4-3.7-4.6-3.3-7.9,4.8-5.6,3.6-11.3,0-17-8.7-13.9-16.5-28.5-29-39.6a8.7,8.7,0,0,1-1.9-2.8c-12.7-40.4-23.6-81.3-28.6-123.4a490.7,490.7,0,0,1-2.2-92.3,416.7,416.7,0,0,1,20.3-102.6c17.7-53.4,44.7-101.4,82.4-143.5,36.2-40.5,78.7-72.8,126.7-98.1a485.7,485.7,0,0,1,173-53.3c30.6-3.5,61.4-4.4,92.2-.5,4.5.6,8.9,2.1,13.3,3.1,19,6.9,36.8,16.1,54.2,26.2q111.8,64.8,171.9,179.2c.7,1.4,1.3,2.9,1.9,4.4.8,3.4-1.9,4.9-3.9,6.6-11.7,10.1-14.4,21.5-7.9,35.5,4.7,10.1,9.7,20.2,15,30.1s10.2,12,21.4,8.4C2617.1,601.8,2619.1,600.2,2621.4,601.9Z" transform="translate(-1316.6 -279.5)" style="fill: #1f4c8a"/>
    <path d="M2362.4,312.1c-5.5.8-10.8-1.2-16.3-1.6s-8.6-1.1-12.9-.9c-6.7.4-13.1-1.3-19.8-1.4-16-.1-31.9,1.2-47.8,2.6a470,470,0,0,0-99.6,19.8,488.1,488.1,0,0,0-66.1,26.1,463.1,463.1,0,0,0-66.7,39,500.5,500.5,0,0,0-39.6,31.4q-13.6,12-26.1,25.2a401.5,401.5,0,0,0-51.8,67.8,418.9,418.9,0,0,0-40.2,89,401.7,401.7,0,0,0-14.4,61.1c-2,12.6-3.1,25.3-4.3,37.9-1.8,18.3-1.5,36.6-.7,54.8a424.3,424.3,0,0,0,4.7,47.5,605.2,605.2,0,0,0,14.2,68.1c3.4,12.8,7.3,25.4,11,38.1.6,2.2,1.7,4.3,1.5,6.6-1.8,1.1-3.6.7-5.3,0-8.1-3.8-16.8-3.7-25.5-3.6q-23.2.1-46.5,0c-3.2,0-7,1-9.2-2.7-3.3-9.2-8.6-17.6-11.5-27,1.7-2.9,4.5-1.5,6.8-1.6,17.6-.6,35.2,1.3,52.7-1.3a51.7,51.7,0,0,0,5.4-1.1c7.9-2.4,10.7-7.7,7.8-15.3-5.2-13.5-12.2-26.1-19.6-38.5-6.3-10.5-16.5-14.5-28.1-13.7s-25.5,1.7-38.2,3.2c-3.3.4-6.9,1.2-9.6-1.9a460.3,460.3,0,0,1-10.7-80.1,429.5,429.5,0,0,1,59.9-241.4q81.9-137.8,232.6-193.4a424.8,424.8,0,0,1,120.9-24.5c65.6-3.7,128.9,6.1,190,30.2A28.5,28.5,0,0,1,2362.4,312.1Z" transform="translate(-1316.6 -279.5)" style="fill: #3b7cbf"/>
    <path d="M1622,1531.3v-70a88.8,88.8,0,0,1,.5-10.3c1.4-11.5,8-18.6,19.1-21.6,8-2.2,16.2-2.6,24.4-3.2,19.8-1.4,39.7-2.4,59.5.5a122.5,122.5,0,0,1,21.3,5.2c26.1,9.2,40,28.4,45.3,54.7a170,170,0,0,1,2.9,33.4v88.3c-.3,7.2-2.2,9.5-9.5,9.6-12.1.3-24.2.3-36.3.1-8.8-.1-11.3-2.9-11.3-11.8-.1-30.2,0-60.4,0-90.5a94.5,94.5,0,0,0-1.6-19.8c-2.8-12.1-10.1-19.7-22.5-22-10.2-1.9-20.5-1.2-30.8-.6-2.7.2-4.3,1.3-4,4.2s0,3.2,0,4.8v122.8c0,11.3-1.6,12.9-13.1,12.9h-32.1s-11.3-2.7-11.8-11.5v-63.1C1622.3,1539.6,1622,1531.3,1622,1531.3Z" transform="translate(-1316.6 -279.5)" style="fill: #1e335b"/>
    <path d="M2551,1530.7v-68.4q0-4.8.3-9.6c.9-12.4,6.9-19.7,18.9-23.1,8.2-2.3,16.7-2.7,25.1-3.3,19.8-1.4,39.7-2.4,59.5.6a104.1,104.1,0,0,1,25.7,7c21.9,9.4,34.2,26.5,39.7,49.2,2.8,11.6,3.6,23.5,3.7,35.4.2,28.8.1,57.6.1,86.4v.6c-.1,10.9-1.9,12.7-12.7,12.8s-20.9.1-31.5,0a29.9,29.9,0,0,1-6.7-.7,7.2,7.2,0,0,1-5.9-6.7c-.2-2-.2-4.1-.2-6.2v-88.4a88,88,0,0,0-2.3-21.7c-2.9-11-9.8-17.7-21-20.1s-21.4-1.4-32.1-.8c-2.5.1-3.8,1.2-3.6,3.9s0,3.2,0,4.8v126.4c-.2,7.3-2.2,9.6-9.4,9.8-12.2.3-24.4.3-36.5.1-8.6-.1-10.9-2.7-10.9-11.5C2550.9,1581.8,2551,1556.2,2551,1530.7Z" transform="translate(-1316.6 -279.5)" style="fill: #1e335b"/>
    <path d="M1405.9,1619.5c-10.4.2-20.4-.5-30.2-3.1-24-6.3-41.2-20.7-49.9-44-11.6-30.8-12.4-62.2-1.7-93.4,11.9-34.7,39.9-54.9,76.5-56.4,20.9-.8,41,2.2,60.2,10.8a37.1,37.1,0,0,1,4.9,2.4c4.3,2.6,5.5,5.1,3.9,9.8-3.5,10.2-7.1,20.2-11.1,30.2-2,5-5.2,6.3-10.5,5.1-6.9-1.6-13.7-3.7-20.6-5.1a67.9,67.9,0,0,0-21.1-1.5c-10.3,1.1-17.9,6.4-23,15.3a46.4,46.4,0,0,0-5.1,13.4,90.6,90.6,0,0,0-.2,38.1c3.7,17.9,14.4,26.6,32.8,26.9,11.5.2,22.7-2.2,33.7-5.6,2.8-.9,5.6-2,8.4-2.8,6-1.8,8.4-.7,10.7,5.1,3.7,9.3,7.2,18.8,10.6,28.2,2.1,5.8,1.1,8.9-4.4,12a97.8,97.8,0,0,1-25.5,9.9A143.7,143.7,0,0,1,1405.9,1619.5Z" transform="translate(-1316.6 -279.5)" style="fill: #1e335b"/>
    <path d="M2968,1477.2V1373.6c0-1.8-.1-3.7,0-5.5.3-6.3,2.6-8.7,8.8-9s10.6-.1,15.9-.1h21.4c8.9.2,11.1,2.3,11.1,11,.1,16.7,0,33.4,0,50.1a6.4,6.4,0,0,0,6.4,6.4h26.9c8.5.1,10.5,2.2,10.5,10.8v22c-.1,8.9-1.9,10.7-11.1,10.7h-27.6a5.3,5.3,0,0,0-5.3,5.3v133.2c0,6.5,0,6.6-6.4,8.4a50.9,50.9,0,0,1-26,.5c-13.7-3.4-22.1-13.2-24-28.4a90.1,90.1,0,0,1-.5-11.6C2967.9,1544,2968,1510.6,2968,1477.2Z" transform="translate(-1316.6 -279.5)" style="fill: #1e335b"/>
    <path d="M2308,1488.9v118s.5,7.8-6.9,9.7a48.5,48.5,0,0,1-22.4.7c-14.1-2.9-23.8-13.4-26.1-28.3a89.2,89.2,0,0,1-.8-11.6l-.3-203.1a62.6,62.6,0,0,1,.2-7.5c.7-5.7,3.1-8.3,8.9-8.4q19.2-.5,38.4,0c7.5.2,10,11.9,10,11.9v118.8Z" transform="translate(-1316.6 -279.5)" style="fill: #1e335b"/>
    <path d="M1988.4,1061.6c5.8,2.4,10.2,6.9,15.1,10.5a409.1,409.1,0,0,0,120.8,60.1,338.2,338.2,0,0,0,55.3,11.8,253,253,0,0,0,49.2,1.2,528.3,528.3,0,0,0,65-7.6,433.9,433.9,0,0,0,97.6-30.6c28.3-12.6,54.4-28.8,79-47.5a340.7,340.7,0,0,0,47-42.8c6.9-7.6,13.8-15.2,19.9-23.4,2.8-3.7,5.7-8,11.6-6.9-8.8,13.1-19.3,24.9-30.1,36.4q-75.9,80.9-180.8,116.6a441.6,441.6,0,0,1-170.2,22.2,429.8,429.8,0,0,1-123.6-26.3,444.1,444.1,0,0,1-116.5-64.5c-2-1.5-4.2-2.8-5.6-5,2.7-2.5,6-1.9,9.1-1.5,13.1,1.8,26.2,3.1,39.2,4.7C1977.8,1069.9,1984.6,1069.3,1988.4,1061.6Z" transform="translate(-1316.6 -279.5)" style="fill: #3b7cbf"/>
    <path d="M1576,1524.4v82.7c0,7.2,0,7.2-7,9.1a46.4,46.4,0,0,1-22.2.7c-13.8-3-22-11.8-25.4-25.4a49.5,49.5,0,0,1-1.4-12.7c0-45.1-.1-91.1-.1-136.5a32.5,32.5,0,0,1,.2-5.4c.6-4.6,3-7.1,7.7-7.2,13.6-.2,27.3-.2,41,0,5.4.1,7.6,2.8,8.1,8.3a48.7,48.7,0,0,1,.1,5.4v80.9Z" transform="translate(-1316.6 -279.5)" style="fill: #1e335b"/>
    <path d="M2609.4,876.5l-22.1,17.1a60.1,60.1,0,0,1-12.8,7.8c-12,5.3-20.5-.4-24.9-8.5a109.3,109.3,0,0,1-9-22.8c-1.6-5.4-4.1-10.6-4.1-16.5a29.7,29.7,0,0,1,11.8-24.3c15.4-12.1,31.3-23.6,46.4-36l20.1-16.4c2.5-2.1,5.5-3.3,8.3-4.8s7.9-1.4,11.9,0a45.9,45.9,0,0,1,9.2,16.6c2.2,6.5,4.6,12.8,6.7,19.3a67.7,67.7,0,0,1,2.3,9.9c1.7,12.1-1.6,22.4-11,30.7s-16.6,14.2-25,21.2C2614.5,872,2612,874.3,2609.4,876.5Z" transform="translate(-1316.6 -279.5)" style="fill: #12aab9"/>
    <path d="M1766.6,819.9c10.1.4,20-1.4,30.1-1.7s18.1-2.7,27.3-.9,15.4,5.6,19.9,13.2a358.3,358.3,0,0,1,20,39c4,9.2.9,15.4-8.9,18.3a55.6,55.6,0,0,1-16.2,2.2c-16.4.1-32.9,0-49.3,0-2.1-1.1-4.4-.8-6.7-1-10.9-1.1-19.5-5.8-25.1-15.4a271.5,271.5,0,0,1-15.9-32.5,25.9,25.9,0,0,1-1.4-4.5c-1.6-8.5,2.1-13.6,10.7-14.9C1756.1,820.8,1761.4,820.5,1766.6,819.9Z" transform="translate(-1316.6 -279.5)" style="fill: #d35b2b"/>
    <path d="M2621.4,601.9c-3.2,1.2-6.3,2.6-9.6,3.5-5.7,1.6-12.1,1.8-17.1-6.1-1.1-1.7-2.2-3.5-3.2-5.3-4.8-9.6-9.5-19.3-14.4-28.8-6.9-13.6-3.7-31.6,8.7-38.2a10.5,10.5,0,0,0,4.5-5c1.8.1,2.9-1.1,4.2-2.1,10-8,20-15.9,29.4-24.6l2-1.9c8.8-7.9,15-7.1,20.7,3.4,6.7,12.2,13.1,24.6,19,37.2s4.9,24.6-7.3,34.4-21.7,18.9-32.4,28.5C2624.2,598.3,2622.2,599.5,2621.4,601.9Z" transform="translate(-1316.6 -279.5)" style="fill: #147d9b"/>
    <path d="M1800.9,917l53.3.5h13c7.3.1,13.7,3.1,20.2,5.9,11.7,8.7,18.3,21.4,26.1,33.2a113.5,113.5,0,0,1,6.6,11.2c3.2,6.2,2.5,9.5-2.6,14.5s-12.6,4.7-19.4,4.3a447.4,447.4,0,0,1-51.5-6.5,29.7,29.7,0,0,1-8.9-3.3c-4.5-1.5-9.1-2.8-13.6-4.5a31,31,0,0,1-16.3-12.9c-5.2-8.3-10.7-16.4-16.1-24.6-1.9-2.9-3.4-5.9-3.4-9.5s1.7-7.1,6.6-7.9A38.3,38.3,0,0,1,1800.9,917Z" transform="translate(-1316.6 -279.5)" style="fill: #cc2152"/>
    <path d="M2637.4,701.6a15.8,15.8,0,0,0-5.7-11.5c-4.1-3.6-5.3-9.5-7.2-14.6s-2.6-8.8-4.4-12.9c-2.9-6.8-2.8-13.8-2.5-20.9.2-4.6,2.4-8.2,5.4-11.5s4-3.2,4.4-6c2.6,0,3.9-2.1,5.6-3.6l36-33.6a27.9,27.9,0,0,1,4.2-3.5c5.8-3.6,10.5-2.6,13.7,3.4a141.6,141.6,0,0,1,14,37.7c2.1,9.7-.2,18.5-7.2,26-9.5,10.2-18.8,20.5-28.2,30.8-2.2,2.3-4.5,4.5-6.9,6.7-5.8,5.1-11.8,9.6-20,7.5C2636.9,697.6,2638.2,699.8,2637.4,701.6Z" transform="translate(-1316.6 -279.5)" style="fill: #068fa9"/>
    <path d="M1988.4,1061.6c-.4,6.5-1.7,8.2-7.6,9.3-4.3.8-8.6.3-12.9-.2-13.5-1.7-27-3.2-40.5-4.8a48.7,48.7,0,0,0-5.4-.1c-4.8-1.9-9.8-1.9-14.8-2.6-16.1-2-29.8-8.2-39.8-21.5-4.8-6.4-10-12.5-15-18.8a27.7,27.7,0,0,1-3.1-4.5c-3-5.6-1.2-9.8,5-11.4a33.5,33.5,0,0,1,5.4-.8c8.5-3.5,17.1-.1,25.5.5,13.8.9,27.6,2.2,41.3,3.5,4.6.4,9,.9,12.9,3.7,19.1,5.3,29.6,20.7,40.8,35.2C1983.3,1053.1,1985.7,1057.5,1988.4,1061.6Z" transform="translate(-1316.6 -279.5)" style="fill: #ab295c"/>
    <path d="M1782.5,972.9c-13.3-2.1-26.6-4.1-39.9-6.4-8.5-1.5-17-3.3-25.5-5-12-2.4-21.5-8.5-27.9-19.1-4.1-6.9-8.4-13.6-12.5-20.5a21.6,21.6,0,0,1-3.6-9.5c-.5-5,1.8-7.7,6.9-8.2a12.9,12.9,0,0,1,3.4.1c17.6,4,35.7,5,53.5,7.6,3.4.5,6.8,1.1,10.1,1.8a34.4,34.4,0,0,1,21.5,13.5c7.4,9.9,13.7,20.5,20.6,30.7a23.4,23.4,0,0,1,2.5,5.6c1.8,5.9-.2,8.8-6.2,9.1a24.3,24.3,0,0,1-2.7,0Z" transform="translate(-1316.6 -279.5)" style="fill: #b70f7d"/>
    <path d="M1842.3,1051.3c-10.1-.9-19.9-3-29.7-4.9-14.1-2.8-28.1-6.2-42.1-9.3s-26.1-10.6-34.7-22.7c-3.7-5.2-7.4-10.4-10.9-15.7a24.9,24.9,0,0,1-3.2-6.8c-1-3.5.5-5.8,4.2-6.4a15.6,15.6,0,0,1,6.1.2c22,5,44.3,8.8,66.5,12.9a80.1,80.1,0,0,1,13.7,4.1,36.2,36.2,0,0,1,15.4,11l20.1,25.1a7.6,7.6,0,0,1,.8,1.1c1.7,2.7,4.1,5.4,2.4,8.8S1845.4,1051.1,1842.3,1051.3Z" transform="translate(-1316.6 -279.5)" style="fill: #802480"/>
    <path d="M1629.1,873.6l-3.4-.6a272.6,272.6,0,0,1-35.1-11.7c-10-4.2-17.2-11-21.4-21-3-6.9-6.2-13.8-9.2-20.6a30.5,30.5,0,0,1-1.3-3.2c-1.2-3.2-2.6-6.8.2-9.6s6-1.4,9.1-.6c12.1,3.3,24.2,6.6,36.4,9.7,9.9,2.6,17,8.3,21,17.9,3.3,8,7.1,15.8,10.7,23.8a37.7,37.7,0,0,1,2.3,6.4C1639.7,870.8,1636.8,874,1629.1,873.6Z" transform="translate(-1316.6 -279.5)" style="fill: #761754"/>
    <path d="M1673,950.7c-.8-.2-2.6-.4-4.4-.9-16.8-4.5-33.1-10.3-48.3-18.9-5.7-3.2-10.6-7.2-14.1-12.7a174.4,174.4,0,0,1-14.2-25.8,29.3,29.3,0,0,1-2.2-6.5c-.9-4.6,1.5-7.1,6.2-6.4a30.8,30.8,0,0,1,6.5,2.1c12.5,5.1,25,10.1,37.8,14.1,11,3.4,19.3,9.9,24.8,20.2,3.7,7.1,7.9,13.9,11.8,20.9a25.7,25.7,0,0,1,2.8,6.9C1680.8,948.5,1678.9,950.7,1673,950.7Z" transform="translate(-1316.6 -279.5)" style="fill: #651a53"/>
    <path d="M2737.6,582.5c.1,4.3-1.6,8-3.6,11.7-4.4,8-10.3,15-15.8,22.3-3.6,4.8-8.4,4.6-10.8-.9-6.1-13.7-12.3-27.5-14.6-42.6a19.2,19.2,0,0,1,3.6-14.3c5.8-7.9,11.6-15.8,17.8-23.5,3.8-4.7,7.6-4.2,9.7,1.5,4.9,13.3,9.8,26.6,13.1,40.3C2737.3,578.8,2737.4,580.7,2737.6,582.5Z" transform="translate(-1316.6 -279.5)" style="fill: #2767ae"/>
    <path d="M1547.7,1367.7c6.4,0,12.8-.2,19.2,0s8.9,2.5,9,9.3.1,15.5,0,23.3-1.9,9.2-9,9.4q-19.2.6-38.4,0c-7-.2-9.2-3-9.3-10s-.2-15.1,0-22.6,2.8-9.1,9.2-9.4S1541.3,1367.7,1547.7,1367.7Z" transform="translate(-1316.6 -279.5)" style="fill: #1e335b"/>
    <path d="M1939.4,1014c-26.5-3.4-53.2-4.6-79.7-7.7-6-7.7-12.1-15.4-18-23.2-1.5-2-2.7-4.2-4.1-6.3,7.6,1.1,15.3,1.9,22.9,3.5,14.5,3.1,29.4,3.7,44.2,4.3,4.4.2,8.5-1.4,12.7-2.2,3.9,8.8,10.5,15.8,16.1,23.4A53.3,53.3,0,0,1,1939.4,1014Z" transform="translate(-1316.6 -279.5)" style="fill: #3b7cbf"/>
    <path d="M2122.7,592.2c14.8-.1,24.8,5.9,30.7,18.7,7.4,16.2,14.6,32.5,21.1,49.1a42.7,42.7,0,0,1,2.7,9.9c2.1,13.5-3.3,23.9-15.9,29.3s-25.7,9.6-38.8,13.7c-18.3,5.7-36.7,11.2-55.1,16.7-9,2.7-18.3,4.1-27.7,2.9s-16.6-5.6-20.7-14.7c-8.1-17.9-16-35.9-22.9-54.3s.6-34.1,18.9-39.9c31.4-9.9,62.3-21.2,94.1-29.5C2113.9,593,2118.6,592,2122.7,592.2Z" transform="translate(-1316.6 -279.5)" style="fill: #e19a2f"/>
    <path d="M2102.5,858.8a56.7,56.7,0,0,1-10.9-1,29,29,0,0,1-20.1-15.1,409.7,409.7,0,0,1-23.2-50.4c-5.7-14.9-.6-27.1,14-34,6-2.9,12.6-4.1,19-5.8q42.1-11.1,83.2-25.4c7.9-2.7,16-3.8,24.3-2.3a31.8,31.8,0,0,1,21.8,14.1,201.8,201.8,0,0,1,16.7,30.6l8.1,18.1c6.9,15.9,2.2,29.4-13.1,37.6-9.5,5.1-20,7.7-30.2,11-18.3,5.8-36.7,11-55.4,15.6-7.5,1.9-14.7,4.9-22.5,6C2110.2,858.3,2106.4,858.7,2102.5,858.8Z" transform="translate(-1316.6 -279.5)" style="fill: #faea3c"/>
    <path d="M2244,848.8c15.4-.5,26,5.3,32.6,18.5s12.2,23.5,18.4,35.2a28.3,28.3,0,0,1,3.5,14.5,21.6,21.6,0,0,1-8.1,16,46.8,46.8,0,0,1-17.6,9c-28.2,8.3-56.5,16.7-84.8,24.8-10.6,3.1-21.3,5-32.4,3s-20.3-7.6-26.1-18-12.3-21.4-18.5-32.1a47.2,47.2,0,0,1-4.5-10c-3.2-10.4-.2-18.3,9.1-24.1a57.8,57.8,0,0,1,19-7.6c30.8-6.7,60.7-16.9,90.8-26.1C2231.9,850.2,2238.3,848.5,2244,848.8Z" transform="translate(-1316.6 -279.5)" style="fill: #df912f"/>
    <path d="M2378.6,649.7c11.3-.2,19.5,4.3,25,13.6a420.9,420.9,0,0,1,20.1,38.2c6.9,15,2.2,28.5-12.8,37.2-12.2,7.1-25,13.4-37.7,19.5L2328,779.6c-9.3,4.4-18.8,8.2-29.5,8-9-.1-16-3.6-20.7-11.2a357.8,357.8,0,0,1-24.3-46.8c-5.8-13.2-1-26,11.3-33.7,5.1-3.2,10.7-5.2,16.2-7.4,26.5-10.5,52.3-22.9,78.3-34.5A45.9,45.9,0,0,1,2378.6,649.7Z" transform="translate(-1316.6 -279.5)" style="fill: #9cc451"/>
    <path d="M2357.1,898.2c-11.5-.2-20.1-4.2-25.8-13.9a286.1,286.1,0,0,1-17.2-33.5c-5.6-13.6-2.5-24.4,9.5-32.9a63,63,0,0,1,11.4-6.2c29-12.5,57.4-26.2,84.5-42.4a36.3,36.3,0,0,1,19.6-5.3c8,.1,14.2,3.6,17.9,10.6,6.3,11.9,12.5,23.9,18.1,36.2s.9,26.2-10.6,34.5c-8.5,6.2-18,10.9-27.2,15.9-19.7,10.7-39.5,21.1-59.3,31.6C2371.4,896.4,2364,897.8,2357.1,898.2Z" transform="translate(-1316.6 -279.5)" style="fill: #d3cc3e"/>
    <path d="M2222.2,1064.7a46,46,0,0,1-13.5-1.6c-7.1-1.9-13-5.4-17-11.8-5.9-9.3-11.9-18.4-17.9-27.6a24.6,24.6,0,0,1-3.1-6.8c-2.8-9.6.5-17.2,9.3-21.8a47.8,47.8,0,0,1,11-3.8c32.9-7.7,65.3-17.6,97.4-28,8.6-2.8,17.4-3.9,26.3-1.5,6.9,1.8,12.7,5.4,16.5,11.4a249.4,249.4,0,0,1,16.8,29.9c6.7,14.7,2.3,26-12.8,32-17.9,7.1-36.5,11.9-54.9,17.1-14.7,4.1-29.4,8.6-44.4,11.6A104.6,104.6,0,0,1,2222.2,1064.7Z" transform="translate(-1316.6 -279.5)" style="fill: #d35b2b"/>
    <path d="M1923.9,887.9c-10.9,1.4-21.5-6-29.5-18.6s-13.8-26.3-19-40.2a30.3,30.3,0,0,1-1.6-6.6,17.7,17.7,0,0,1,11-19.2,44.6,44.6,0,0,1,13.3-3.2c16-1.2,31.6-5,47.3-7.7,8.3-1.5,16.6-3.2,24.9-4.5a42,42,0,0,1,15,.3,26.3,26.3,0,0,1,18,12.5c7.2,11.7,12.9,24.2,18.4,36.7,2.7,6.1,5.4,12.1,6.5,18.7,2,11.7-3,19.3-14.6,21.4A758.9,758.9,0,0,1,1923.9,887.9Z" transform="translate(-1316.6 -279.5)" style="fill: #df912f"/>
    <path d="M2479.9,694c-7,0-13.5-1.9-17.4-7.9a245.4,245.4,0,0,1-23.2-45.7c-4.9-12.7,1.8-22,11.4-27.7,24.1-14.4,48.3-28.7,71.8-44a42.7,42.7,0,0,1,12.4-5.8c7.1-2,13.9-.3,17.9,5.4,9.4,13.5,17.3,28,22.3,43.8,3.6,11.6-.3,21.4-9.6,28.5-20.7,15.7-41.6,31.1-63.1,45.8A41.9,41.9,0,0,1,2479.9,694Z" transform="translate(-1316.6 -279.5)" style="fill: #2ea57f"/>
    <path d="M1996,987.4c-4.6,0-9.2.4-13.7-.1-12.9-1.5-23.2-7.4-30.7-18.4a276.6,276.6,0,0,1-20.4-34.9,24.1,24.1,0,0,1-1.6-4.5c-2.1-7.2.5-12.6,7.4-15.5s12.6-2.5,18.9-2.9c23.3-1.6,46.4-4.5,69.6-6.5,17.7-1.5,32.4,4.3,41.8,20.4,5.2,8.9,10.6,17.6,15.9,26.5a45.5,45.5,0,0,1,5.3,11.9c2.6,10-1.1,16.5-11.1,19.2-5.8,1.5-11.7,1.8-17.7,2.1-21.2,1.1-42.5,2-63.7,3Z" transform="translate(-1316.6 -279.5)" style="fill: #d35b2b"/>
    <path d="M2212.3,1481.2c-8.5-38.2-30.8-58.1-69.6-63.1-16.5-2.1-32.8-.9-49.1,1.1a163.8,163.8,0,0,0-42.4,10.6c-8.4,3.4-12.7,9-12.6,18.9.5,34.8.2,69.5.2,104.3h.2v102.3a62.7,62.7,0,0,0,.3,7.5c2,17.8,14.1,30.3,31.7,32.6,7.4,1,14.5-.6,21.7-2.3,2.6-.6,3.1-2.2,3.1-4.5s.2-7.3.2-11v-62.4c0-5.3.1-5.4,5.2-4.6a202.2,202.2,0,0,0,32,2.7c38.6-.3,66.4-21.1,77.1-57.9A149.3,149.3,0,0,0,2212.3,1481.2Zm-57.4,59.9c-4.8,14.3-14.7,21.3-29.8,21.9a112.1,112.1,0,0,1-23.8-2.1c-3.2-.6-4.5-2-4.4-5.5.3-6.8.1-13.7.1-20.5V1515h.4c0-13.5.1-26.9-.1-40.4,0-3.6,1-5.3,4.8-5.8,9.3-1.4,18.5-2.7,27.9-1.2,13.3,2.1,22.3,9.3,25.9,22.2A85.5,85.5,0,0,1,2154.9,1541.1Z" transform="translate(-1316.6 -279.5)" style="fill: #1e335b"/>
    <path d="M2509.2,1536h-.1c0-18.1.5-36.2-.1-54.2-1-29-16.5-48.6-43.7-56.2a99.3,99.3,0,0,0-19.6-3.4,222.7,222.7,0,0,0-55.3,3.2,134.6,134.6,0,0,0-25.1,6.7c-5.5,2.1-7.6,4.8-6.6,9.7,1.9,9.4,4,18.8,6.4,28.1,1.2,4.5,4.2,6.2,8.8,5.9a38.9,38.9,0,0,0,4.7-.9,225.2,225.2,0,0,1,45.5-6,54.3,54.3,0,0,1,15,1.5c7.3,2,11.9,6.6,13.1,14.2a38.2,38.2,0,0,1,.4,6.8c0,5.7,0,5.8-5.5,5.8h-31.6c-12.4.1-24.6,1.7-36.3,6.2-19.7,7.6-32.9,21.1-37.1,42.3a73.7,73.7,0,0,0-.3,23.9c2.6,17.5,11.8,30.4,27.4,38.7a83.6,83.6,0,0,0,21.2,7.5c20.4,4.4,40.9,3.8,61.5,1.9a163.8,163.8,0,0,0,44.7-10.1c8.8-3.4,12.9-9.2,12.7-18.8C2509,1571.3,2509.2,1553.7,2509.2,1536Zm-56.9,20.9c0,5.5-.1,10.9,0,16.4,0,2.5-1,3.8-3.4,4.3-11,2.1-22,3.8-33.2,1.6a31,31,0,0,1-13-5.7c-11.7-9.1-10-26.2,3.1-32.9a36.7,36.7,0,0,1,15.2-3.8c9.1-.3,18.2-.1,27.4-.3,2.9-.1,4.1.8,4.1,3.9C2452.2,1545.9,2452.3,1551.4,2452.3,1556.9Z" transform="translate(-1316.6 -279.5)" style="fill: #1e335b"/>
    <path d="M1967.9,1435.2c-17.2-12.2-36.8-15.5-57.5-13-34,4-57.9,21.6-69.8,53.8-11.3,30.6-10.7,62-.8,92.9,7.8,24.2,24.9,39.3,49.5,46a129.4,129.4,0,0,0,34.5,4.3,136,136,0,0,0,26-1.9c13.4-2.4,26.3-6.1,37.9-13.3,7-4.3,8-7.4,4.9-14.8s-6.2-14.3-9.4-21.3-5.8-7.9-13.1-5.5c-5.8,1.9-11.6,4.2-17.5,5.8-13,3.6-26.1,4.6-39.3.9s-20.5-11.6-22.5-24.9c-.9-6.1-.9-6.2,5.3-6.2h72.7c5.9,0,11.9-.1,17.7-1.6a17.8,17.8,0,0,0,13-12,43,43,0,0,0,2.2-12.8C2003.9,1480.1,1994.2,1453.8,1967.9,1435.2Zm-17,64.5-57.5-.2a9.4,9.4,0,0,1-1.9-.7c.5-3,.8-5.8,1.5-8.4,3.6-14.6,15-23.3,30.7-23,20.2.3,28.6,10.8,30.7,28C1954.7,1498.1,1954.3,1499.7,1950.9,1499.7Z" transform="translate(-1316.6 -279.5)" style="fill: #1e335b"/>
    <path d="M2928.8,1497.7c-2.4-29.4-15.4-52.3-41.7-66.6-15.6-8.4-32.4-10.5-49.9-8.4-34.3,4.1-58.2,21.9-70,54.4-10.7,29.3-10.1,59.3-1.6,89,7.8,27.3,26.4,43.8,53.8,50.1a144.9,144.9,0,0,0,74.5-2.6,79.4,79.4,0,0,0,22.3-10.3c4.6-3.2,6.1-6.3,4.2-11.1-3.6-8.9-7.4-17.7-11.6-26.3-2.1-4.4-5-5.3-9.7-3.9-1.7.5-3.4,1.4-5.1,2-10.7,4.1-21.7,7.3-33.2,7.8-9.5.4-18.8-.5-27.4-4.9s-14.7-12.7-15.8-23.3c-.5-4.7-.2-5,4.7-5h41.2c11,0,21.9.1,32.9,0a68.4,68.4,0,0,0,14.3-1c10.3-2.2,15-6.9,16.9-17.2A79.2,79.2,0,0,0,2928.8,1497.7Zm-51.5,2c-18.7-.2-37.5-.1-56.2-.1a6.7,6.7,0,0,1-1.9-.5c-.5-19.7,13.8-33,33.7-31.7s26.9,14.9,28.3,27.6C2881.5,1498.1,2881,1499.8,2877.3,1499.7Z" transform="translate(-1316.6 -279.5)" style="fill: #1e335b"/>
  </g>
</svg>
